<?xml version="1.0" encoding="utf-8"?>
<!-- Generator: Adobe Illustrator 24.0.2, SVG Export Plug-In . SVG Version: 6.00 Build 0)  -->
<svg version="1.1" id="Layer_1" xmlns="http://www.w3.org/2000/svg" xmlns:xlink="http://www.w3.org/1999/xlink" x="0px" y="0px"
	 viewBox="0 0 764 275" style="enable-background:new 0 0 764 275;" xml:space="preserve">
<style type="text/css">
	.st0{fill:#00548E;}
	.st1{fill:#EC2030;}
</style>
<g>
	<g>
		<g>
			<polygon class="st0" points="104.5,100.5 60,116.6 60,43.4 46.3,43.4 46.3,121.6 46.3,136.4 60,131.4 60,131.2 104.5,114.4 			
				"/>
			<polygon class="st0" points="104.5,136.9 49.3,156.9 46.3,157.9 46.3,158 46.3,172.8 46.3,218.1 23.6,218.1 23.6,43.4 9.8,43.4 
				9.8,218.1 9.8,232.8 23.6,232.8 46.3,232.8 60,232.8 60,218.1 60,167.6 104.5,150.8 			"/>
		</g>
		<g>
			<polygon class="st1" points="199.3,43.4 199.3,119.3 185.5,114.5 185.5,43.4 			"/>
			<polygon class="st1" points="159.8,156.9 162.8,157.9 162.8,232.8 149.1,232.8 149.1,167.6 104.5,150.8 104.5,136.9 			"/>
			<polygon class="st1" points="199.3,135 199.3,232.8 185.5,232.8 185.5,145.4 104.6,114.3 104.6,100.5 160.6,120.9 162.2,121.5 
				185.5,130.1 185.5,130 			"/>
			<polygon class="st1" points="162.6,106.3 148.4,102.5 148.4,43.4 162.6,43.4 			"/>
		</g>
	</g>
	<g>
		<g>
			<path class="st0" d="M268,87.1V69.9h-17.4v17.3h-9.5v-43h9.5v17H268v-17h9.5v43H268z"/>
			<path class="st0" d="M308.7,87.9c-13.3,0-22.8-9.9-22.8-22.1v-0.1c0-12.2,9.6-22.2,22.9-22.2c13.3,0,22.8,9.9,22.8,22.1v0.1
				C331.6,77.8,322,87.9,308.7,87.9z M321.7,65.6c0-7.4-5.4-13.5-13-13.5c-7.6,0-12.9,6-12.9,13.4v0.1c0,7.4,5.4,13.5,13,13.5
				c7.6,0,12.9-6,12.9-13.4V65.6z"/>
			<path class="st0" d="M358,87.8c-11.5,0-18.6-6.5-18.6-19.1V44.1h9.5v24.3c0,7,3.5,10.6,9.3,10.6c5.8,0,9.3-3.5,9.3-10.3V44.1h9.5
				v24.3C376.9,81.4,369.6,87.8,358,87.8z"/>
			<path class="st0" d="M401.8,87.7c-6.5,0-13.1-2.3-18.2-6.9l5.6-6.7c3.9,3.2,7.9,5.2,12.8,5.2c3.9,0,6.2-1.5,6.2-4.1v-0.1
				c0-2.4-1.5-3.6-8.7-5.5c-8.7-2.2-14.3-4.6-14.3-13.1v-0.1c0-7.8,6.3-13,15.1-13c6.3,0,11.6,2,16,5.5l-4.9,7.1
				c-3.8-2.6-7.6-4.2-11.2-4.2s-5.5,1.7-5.5,3.7v0.1c0,2.8,1.8,3.7,9.3,5.7c8.7,2.3,13.6,5.4,13.6,12.9v0.1
				C417.6,82.9,411.1,87.7,401.8,87.7z"/>
			<path class="st0" d="M444.4,52.8v34.3H435V52.8h-13.1v-8.7h35.6v8.7H444.4z"/>
			<path class="st0" d="M483.8,87.9c-13.3,0-22.8-9.9-22.8-22.1v-0.1c0-12.2,9.6-22.2,22.9-22.2c13.3,0,22.8,9.9,22.8,22.1v0.1
				C506.7,77.8,497.1,87.9,483.8,87.9z M496.9,65.6c0-7.4-5.4-13.5-13-13.5c-7.6,0-12.9,6-12.9,13.4v0.1c0,7.4,5.4,13.5,13,13.5
				c7.6,0,12.9-6,12.9-13.4V65.6z"/>
			<path class="st0" d="M545.4,87.1l-20.8-27.3v27.3h-9.3v-43h8.7l20.2,26.5V44.1h9.3v43H545.4z"/>
			<path class="st0" d="M267.2,143.5l-9.2-13.8h-7.4v13.8h-9.5v-43h19.7c10.1,0,16.2,5.3,16.2,14.2v0.1c0,6.9-3.7,11.3-9.2,13.3
				l10.5,15.4H267.2z M267.4,115.1c0-4.1-2.8-6.1-7.4-6.1h-9.4v12.3h9.6c4.6,0,7.2-2.5,7.2-6.1V115.1z"/>
			<path class="st0" d="M306.4,144.2c-13.3,0-22.8-9.9-22.8-22.1V122c0-12.2,9.6-22.2,22.9-22.2c13.3,0,22.8,9.9,22.8,22.1v0.1
				C329.3,134.2,319.7,144.2,306.4,144.2z M319.5,122c0-7.4-5.4-13.5-13-13.5c-7.6,0-12.9,6-12.9,13.4v0.1c0,7.4,5.4,13.5,13,13.5
				c7.6,0,12.9-6,12.9-13.4V122z"/>
			<path class="st0" d="M358.7,144.2c-13.3,0-22.8-9.9-22.8-22.1V122c0-12.2,9.6-22.2,22.9-22.2c13.3,0,22.8,9.9,22.8,22.1v0.1
				C381.6,134.2,371.9,144.2,358.7,144.2z M371.7,122c0-7.4-5.4-13.5-13-13.5c-7.6,0-12.9,6-12.9,13.4v0.1c0,7.4,5.4,13.5,13,13.5
				c7.6,0,12.9-6,12.9-13.4V122z"/>
			<path class="st0" d="M399.5,109.1v9.2H420v8.6h-20.5v16.6H390v-43h32.7v8.6H399.5z"/>
			<path class="st0" d="M430.8,143.5v-43h9.5v43H430.8z"/>
			<path class="st0" d="M481.2,143.5l-20.8-27.3v27.3H451v-43h8.7l20.2,26.5v-26.5h9.3v43H481.2z"/>
			<path class="st0" d="M520.3,144.2c-13.4,0-22.6-9.4-22.6-22.1V122c0-12.2,9.5-22.2,22.5-22.2c7.7,0,12.4,2.1,16.9,5.9l-6,7.2
				c-3.3-2.8-6.3-4.4-11.2-4.4c-6.9,0-12.3,6.1-12.3,13.4v0.1c0,7.9,5.4,13.6,13,13.6c3.4,0,6.5-0.9,8.9-2.6v-6.1H520v-8.2h18.7
				v18.7C534.2,141.1,528.1,144.2,520.3,144.2z"/>
			<path class="st0" d="M595.1,144.3l-5-5c-3.5,2.9-7.6,4.8-12.6,4.8c-8.2,0-14.4-4.8-14.4-12.5c0-5.5,2.9-9.4,8.4-11.9
				c-2.1-3-3-5.7-3-8.7c0-6,4.7-11.4,13-11.4c7.3,0,12.1,4.7,12.1,10.9c0,5.8-3.7,9.2-9,11.3l5.7,5.7c1.4-2.2,2.8-4.7,4.2-7.4
				l6.9,3.8c-1.7,3-3.5,6.2-5.7,9.1l6.3,6.3L595.1,144.3z M576.6,125.5c-2.8,1.5-4,3.6-4,5.7c0,3.1,2.5,5.1,6,5.1
				c2.2,0,4.2-0.9,6.2-2.5L576.6,125.5z M581.3,107.1c-2.5,0-4.2,1.8-4.2,4.4c0,2,0.7,3.4,2.5,5.4c3.7-1.4,5.7-3,5.7-5.8
				C585.4,108.6,583.7,107.1,581.3,107.1z"/>
			<path class="st0" d="M261.3,200.5c-12.7,0-22.1-9.8-22.1-22.1v-0.1c0-12.2,9.2-22.2,22.4-22.2c8.1,0,13,2.7,17,6.6l-6,6.9
				c-3.3-3-6.7-4.9-11-4.9c-7.3,0-12.5,6-12.5,13.4v0.1c0,7.4,5.1,13.5,12.5,13.5c4.9,0,7.9-2,11.3-5l6,6.1
				C274.5,197.6,269.5,200.5,261.3,200.5z"/>
			<path class="st0" d="M306.1,200.5c-13.3,0-22.8-9.9-22.8-22.1v-0.1c0-12.2,9.6-22.2,22.9-22.2c13.3,0,22.8,9.9,22.8,22.1v0.1
				C329,190.5,319.4,200.5,306.1,200.5z M319.1,178.3c0-7.4-5.4-13.5-13-13.5c-7.6,0-12.9,6-12.9,13.4v0.1c0,7.4,5.4,13.5,13,13.5
				c7.6,0,12.9-6,12.9-13.4V178.3z"/>
			<path class="st0" d="M367.6,199.8l-20.8-27.3v27.3h-9.3v-43h8.7l20.2,26.5v-26.5h9.3v43H367.6z"/>
			<path class="st0" d="M401.3,200.4c-6.5,0-13.1-2.3-18.2-6.9l5.6-6.7c3.9,3.2,7.9,5.2,12.8,5.2c3.9,0,6.2-1.5,6.2-4.1v-0.1
				c0-2.4-1.5-3.6-8.7-5.5c-8.7-2.2-14.3-4.6-14.3-13.1v-0.1c0-7.8,6.3-13,15.1-13c6.3,0,11.6,2,16,5.5l-4.9,7.1
				c-3.8-2.6-7.6-4.2-11.2-4.2c-3.6,0-5.5,1.7-5.5,3.7v0.1c0,2.8,1.8,3.7,9.3,5.7c8.7,2.3,13.6,5.4,13.6,12.9v0.1
				C417.1,195.6,410.6,200.4,401.3,200.4z"/>
			<path class="st0" d="M443.9,165.5v34.3h-9.5v-34.3h-13.1v-8.7H457v8.7H443.9z"/>
			<path class="st0" d="M490.4,199.8l-9.2-13.8h-7.4v13.8h-9.5v-43H484c10.1,0,16.2,5.3,16.2,14.2v0.1c0,6.9-3.7,11.3-9.2,13.3
				l10.5,15.4H490.4z M490.6,171.5c0-4.1-2.8-6.1-7.4-6.1h-9.4v12.3h9.6c4.6,0,7.2-2.5,7.2-6.1V171.5z"/>
			<path class="st0" d="M526.7,200.5c-11.5,0-18.6-6.5-18.6-19.1v-24.6h9.5v24.3c0,7,3.5,10.6,9.3,10.6c5.8,0,9.3-3.5,9.3-10.3
				v-24.6h9.5v24.3C545.5,194.1,538.2,200.5,526.7,200.5z"/>
			<path class="st0" d="M575.4,200.5c-12.7,0-22.1-9.8-22.1-22.1v-0.1c0-12.2,9.2-22.2,22.4-22.2c8.1,0,13,2.7,17,6.6l-6,6.9
				c-3.3-3-6.7-4.9-11-4.9c-7.3,0-12.5,6-12.5,13.4v0.1c0,7.4,5.1,13.5,12.5,13.5c4.9,0,7.9-2,11.3-5l6,6.1
				C588.6,197.6,583.7,200.5,575.4,200.5z"/>
			<path class="st0" d="M620,165.5v34.3h-9.5v-34.3h-13.1v-8.7h35.6v8.7H620z"/>
			<path class="st0" d="M640.8,199.8v-43h9.5v43H640.8z"/>
			<path class="st0" d="M681.9,200.5c-13.3,0-22.8-9.9-22.8-22.1v-0.1c0-12.2,9.6-22.2,22.9-22.2c13.3,0,22.8,9.9,22.8,22.1v0.1
				C704.9,190.5,695.2,200.5,681.9,200.5z M695,178.3c0-7.4-5.4-13.5-13-13.5c-7.6,0-12.9,6-12.9,13.4v0.1c0,7.4,5.4,13.5,13,13.5
				c7.6,0,12.9-6,12.9-13.4V178.3z"/>
			<path class="st0" d="M743.5,199.8l-20.8-27.3v27.3h-9.3v-43h8.7l20.2,26.5v-26.5h9.3v43H743.5z"/>
		</g>
		<g>
			<path class="st1" d="M254.2,214.6h2.2l-7.7,18.1h-1.8l-7.7-18.1h2.3l6.4,15.4L254.2,214.6z"/>
			<path class="st1" d="M273.3,232.5h-2.2l-2.1-4.7h-9.8l-2.1,4.7h-2.1l8.2-18.1h1.9L273.3,232.5z M264.2,216.8l-4.1,9.1h8.2
				L264.2,216.8z"/>
			<path class="st1" d="M276.1,214.6h2v16.1h10.1v1.9h-12.1V214.6z"/>
			<path class="st1" d="M305.4,224.8c0,1.3-0.2,2.5-0.5,3.5s-0.9,1.8-1.5,2.5c-0.7,0.7-1.4,1.2-2.4,1.5c-0.9,0.3-1.9,0.5-3.1,0.5
				c-1.1,0-2.1-0.2-3-0.5c-0.9-0.3-1.7-0.8-2.4-1.5c-0.7-0.7-1.2-1.5-1.5-2.4c-0.4-1-0.5-2.1-0.5-3.4v-10.4h2v10.3
				c0,1.9,0.5,3.4,1.4,4.5c1,1,2.3,1.6,4,1.6c1.7,0,3-0.5,3.9-1.5c1-1,1.5-2.5,1.5-4.4v-10.4h2V224.8z"/>
			<path class="st1" d="M325.5,232.5h-2.2l-2.1-4.7h-9.8l-2.1,4.7h-2.1l8.2-18.1h1.9L325.5,232.5z M316.3,216.8l-4.1,9.1h8.2
				L316.3,216.8z"/>
			<path class="st1" d="M338.3,214.9c0.7,0.2,1.3,0.5,1.8,0.9c0.5,0.4,0.9,0.9,1.2,1.4c0.3,0.6,0.4,1.2,0.4,1.9
				c0,0.6-0.1,1.1-0.2,1.6c-0.2,0.4-0.4,0.8-0.7,1.2c-0.3,0.3-0.6,0.6-0.9,0.9c-0.3,0.2-0.7,0.4-1,0.6c0.5,0.2,1,0.4,1.5,0.6
				c0.5,0.2,0.9,0.5,1.2,0.9c0.3,0.3,0.6,0.8,0.8,1.2c0.2,0.5,0.3,1,0.3,1.6c0,0.8-0.2,1.5-0.5,2.1c-0.3,0.6-0.7,1.1-1.3,1.6
				c-0.6,0.4-1.3,0.7-2.1,1c-0.8,0.2-1.7,0.3-2.7,0.3h-8v-17.9h7.6C336.8,214.6,337.6,214.7,338.3,214.9z M338.5,221.7
				c0.8-0.5,1.2-1.4,1.2-2.4c0-0.9-0.3-1.6-1-2.2c-0.7-0.5-1.7-0.8-2.9-0.8h-5.4v6.2h5.3C336.8,222.6,337.8,222.3,338.5,221.7z
				 M339.5,229.9c0.8-0.6,1.2-1.4,1.2-2.4c0-1-0.4-1.8-1.2-2.3c-0.8-0.5-2-0.8-3.6-0.8h-5.6v6.4h6
				C337.7,230.7,338.7,230.4,339.5,229.9z"/>
			<path class="st1" d="M346,214.6h2v16.1h10.1v1.9H346V214.6z"/>
			<path class="st1" d="M374.1,216.4h-10.9v6.1h9.8v1.8h-9.8v6.3h11.1v1.8h-13.1v-17.9h13V216.4z"/>
			<path class="st1" d="M397.5,216.4h-10.9v6.1h9.8v1.8h-9.8v6.3h11.1v1.8h-13.1v-17.9h13V216.4z"/>
			<path class="st1" d="M413.4,232.5l-5.7-7.7l-5.7,7.7h-2.3l6.9-9.1l-6.6-8.8h2.4l5.5,7.3l5.5-7.3h2.4l-6.6,8.8l6.9,9.2H413.4z"/>
			<path class="st1" d="M431.6,222.9c-0.4,0.7-0.9,1.3-1.5,1.8c-0.6,0.5-1.4,0.9-2.2,1.1c-0.9,0.2-1.8,0.4-2.7,0.4h-4.4v6.3h-2
				v-17.9h6.7c1,0,1.9,0.1,2.8,0.4c0.8,0.3,1.5,0.6,2.1,1.1c0.6,0.5,1,1.1,1.4,1.8s0.5,1.5,0.5,2.4
				C432.2,221.3,432,222.1,431.6,222.9z M428.8,217.4c-0.9-0.7-2.1-1-3.5-1h-4.5v7.9h4.4c0.7,0,1.4-0.1,2-0.3
				c0.6-0.2,1.1-0.5,1.6-0.8c0.4-0.4,0.8-0.8,1-1.3c0.2-0.5,0.3-1,0.3-1.6C430.1,219.1,429.7,218.1,428.8,217.4z"/>
			<path class="st1" d="M448.1,216.4h-10.9v6.1h9.8v1.8h-9.8v6.3h11.1v1.8h-13.1v-17.9h13V216.4z"/>
			<path class="st1" d="M463.9,232.5l-5.2-7h-5.1v7h-2v-17.9h7.7c1,0,1.9,0.1,2.7,0.4c0.8,0.3,1.5,0.6,2,1.1s1,1,1.3,1.7
				c0.3,0.7,0.5,1.4,0.5,2.2c0,0.8-0.1,1.4-0.4,2c-0.2,0.6-0.6,1.1-1,1.5c-0.4,0.4-1,0.8-1.6,1.1c-0.6,0.3-1.2,0.5-1.9,0.6l5.5,7.3
				H463.9z M462.5,217.4c-0.8-0.6-1.9-0.9-3.4-0.9h-5.5v7.3h5.5c0.7,0,1.3-0.1,1.8-0.3c0.6-0.2,1.1-0.4,1.5-0.7
				c0.4-0.3,0.7-0.7,1-1.2c0.2-0.5,0.3-1,0.3-1.6C463.7,218.9,463.3,218,462.5,217.4z"/>
			<path class="st1" d="M475.9,232.5h-2v-16.1h-6v-1.9h14.1v1.9h-6V232.5z"/>
			<path class="st1" d="M487.2,214.6v17.9h-2v-17.9H487.2z"/>
			<path class="st1" d="M493.4,220.2c0.1,0.3,0.4,0.7,0.7,0.9c0.4,0.3,0.9,0.5,1.5,0.8c0.6,0.2,1.4,0.5,2.4,0.7
				c2,0.4,3.5,1.1,4.4,1.8c0.9,0.8,1.4,1.9,1.4,3.3c0,0.8-0.2,1.5-0.5,2.1c-0.3,0.6-0.7,1.2-1.3,1.6c-0.5,0.4-1.2,0.8-1.9,1
				c-0.8,0.2-1.6,0.4-2.5,0.4c-1.4,0-2.7-0.2-3.9-0.7c-1.2-0.5-2.3-1.2-3.4-2.1l1.3-1.5c0.9,0.9,1.9,1.5,2.8,1.9
				c1,0.4,2.1,0.6,3.3,0.6c1.2,0,2.2-0.3,2.9-0.8c0.7-0.6,1.1-1.3,1.1-2.2c0-0.4-0.1-0.8-0.2-1.1c-0.1-0.3-0.4-0.6-0.7-0.9
				c-0.3-0.3-0.8-0.5-1.4-0.7c-0.6-0.2-1.4-0.4-2.3-0.6c-1-0.2-1.9-0.5-2.7-0.8c-0.8-0.3-1.4-0.6-1.9-1.1c-0.5-0.4-0.9-0.9-1.1-1.4
				s-0.4-1.2-0.4-1.9c0-0.7,0.1-1.4,0.4-2c0.3-0.6,0.7-1.1,1.2-1.6c0.5-0.4,1.2-0.8,1.9-1c0.7-0.2,1.5-0.4,2.4-0.4
				c1.3,0,2.5,0.2,3.4,0.5c1,0.4,1.9,0.9,2.9,1.6l-1.2,1.6c-0.8-0.7-1.7-1.2-2.5-1.5c-0.8-0.3-1.7-0.5-2.7-0.5
				c-0.6,0-1.1,0.1-1.6,0.2c-0.5,0.2-0.9,0.4-1.2,0.6c-0.3,0.3-0.6,0.6-0.8,0.9c-0.2,0.4-0.3,0.7-0.3,1.2
				C493.2,219.5,493.3,219.9,493.4,220.2z"/>
			<path class="st1" d="M520.3,216.4h-10.9v6.1h9.8v1.8h-9.8v6.3h11.1v1.8h-13.1v-17.9h13V216.4z"/>
			<path class="st1" d="M523.2,232.5v-2.7h2.4v2.7H523.2z"/>
			<path class="st1" d="M546.2,214.9c0.7,0.2,1.3,0.5,1.8,0.9c0.5,0.4,0.9,0.9,1.2,1.4c0.3,0.6,0.4,1.2,0.4,1.9
				c0,0.6-0.1,1.1-0.2,1.6c-0.2,0.4-0.4,0.8-0.7,1.2c-0.3,0.3-0.6,0.6-0.9,0.9c-0.3,0.2-0.7,0.4-1,0.6c0.5,0.2,1,0.4,1.5,0.6
				c0.5,0.2,0.9,0.5,1.2,0.9c0.3,0.3,0.6,0.8,0.8,1.2c0.2,0.5,0.3,1,0.3,1.6c0,0.8-0.2,1.5-0.5,2.1c-0.3,0.6-0.7,1.1-1.3,1.6
				c-0.6,0.4-1.3,0.7-2.1,1c-0.8,0.2-1.7,0.3-2.7,0.3h-8v-17.9h7.6C544.7,214.6,545.5,214.7,546.2,214.9z M546.5,221.7
				c0.8-0.5,1.2-1.4,1.2-2.4c0-0.9-0.3-1.6-1-2.2c-0.7-0.5-1.7-0.8-2.9-0.8h-5.4v6.2h5.3C544.7,222.6,545.7,222.3,546.5,221.7z
				 M547.5,229.9c0.8-0.6,1.2-1.4,1.2-2.4c0-1-0.4-1.8-1.2-2.3c-0.8-0.5-2-0.8-3.6-0.8h-5.6v6.4h6
				C545.6,230.7,546.7,230.4,547.5,229.9z"/>
			<path class="st1" d="M566.9,216.4H556v6.1h9.8v1.8H556v6.3h11.1v1.8H554v-17.9h13V216.4z"/>
			<path class="st1" d="M577.1,232.5h-2v-16.1h-6v-1.9h14.1v1.9h-6V232.5z"/>
			<path class="st1" d="M593,232.5h-2v-16.1h-6v-1.9H599v1.9h-6V232.5z"/>
			<path class="st1" d="M615.1,216.4h-10.9v6.1h9.8v1.8h-9.8v6.3h11.1v1.8h-13.1v-17.9h13V216.4z"/>
			<path class="st1" d="M630.9,232.5l-5.2-7h-5.1v7h-2v-17.9h7.7c1,0,1.9,0.1,2.7,0.4c0.8,0.3,1.5,0.6,2,1.1c0.6,0.5,1,1,1.3,1.7
				c0.3,0.7,0.5,1.4,0.5,2.2c0,0.8-0.1,1.4-0.4,2c-0.2,0.6-0.6,1.1-1,1.5c-0.4,0.4-1,0.8-1.6,1.1c-0.6,0.3-1.2,0.5-1.9,0.6l5.5,7.3
				H630.9z M629.5,217.4c-0.8-0.6-1.9-0.9-3.4-0.9h-5.5v7.3h5.5c0.7,0,1.3-0.1,1.8-0.3c0.6-0.2,1.1-0.4,1.5-0.7
				c0.4-0.3,0.7-0.7,1-1.2c0.2-0.5,0.3-1,0.3-1.6C630.7,218.9,630.3,218,629.5,217.4z"/>
			<path class="st1" d="M655.6,232.5l-5.2-7h-5.1v7h-2v-17.9h7.7c1,0,1.9,0.1,2.7,0.4c0.8,0.3,1.5,0.6,2,1.1c0.6,0.5,1,1,1.3,1.7
				c0.3,0.7,0.5,1.4,0.5,2.2c0,0.8-0.1,1.4-0.4,2c-0.2,0.6-0.6,1.1-1,1.5c-0.4,0.4-1,0.8-1.6,1.1c-0.6,0.3-1.2,0.5-1.9,0.6l5.5,7.3
				H655.6z M654.2,217.4c-0.8-0.6-1.9-0.9-3.4-0.9h-5.5v7.3h5.5c0.7,0,1.3-0.1,1.8-0.3c0.6-0.2,1.1-0.4,1.5-0.7
				c0.4-0.3,0.7-0.7,1-1.2c0.2-0.5,0.3-1,0.3-1.6C655.4,218.9,655,218,654.2,217.4z"/>
			<path class="st1" d="M674,216.4H663v6.1h9.8v1.8H663v6.3h11.1v1.8H661v-17.9h13V216.4z"/>
			<path class="st1" d="M679.2,220.2c0.1,0.3,0.4,0.7,0.7,0.9c0.4,0.3,0.9,0.5,1.5,0.8c0.6,0.2,1.4,0.5,2.4,0.7
				c2,0.4,3.5,1.1,4.4,1.8c0.9,0.8,1.4,1.9,1.4,3.3c0,0.8-0.2,1.5-0.5,2.1c-0.3,0.6-0.7,1.2-1.3,1.6c-0.5,0.4-1.2,0.8-1.9,1
				c-0.8,0.2-1.6,0.4-2.5,0.4c-1.4,0-2.7-0.2-3.9-0.7c-1.2-0.5-2.3-1.2-3.4-2.1l1.3-1.5c0.9,0.9,1.9,1.5,2.8,1.9
				c1,0.4,2.1,0.6,3.3,0.6c1.2,0,2.2-0.3,2.9-0.8c0.7-0.6,1.1-1.3,1.1-2.2c0-0.4-0.1-0.8-0.2-1.1c-0.1-0.3-0.4-0.6-0.7-0.9
				c-0.3-0.3-0.8-0.5-1.4-0.7c-0.6-0.2-1.4-0.4-2.3-0.6c-1-0.2-1.9-0.5-2.7-0.8c-0.8-0.3-1.4-0.6-1.9-1.1c-0.5-0.4-0.9-0.9-1.1-1.4
				s-0.4-1.2-0.4-1.9c0-0.7,0.1-1.4,0.4-2c0.3-0.6,0.7-1.1,1.2-1.6c0.5-0.4,1.2-0.8,1.9-1c0.7-0.2,1.5-0.4,2.4-0.4
				c1.3,0,2.5,0.2,3.4,0.5c1,0.4,1.9,0.9,2.9,1.6l-1.2,1.6c-0.8-0.7-1.7-1.2-2.5-1.5c-0.8-0.3-1.7-0.5-2.7-0.5
				c-0.6,0-1.1,0.1-1.6,0.2c-0.5,0.2-0.9,0.4-1.2,0.6c-0.3,0.3-0.6,0.6-0.8,0.9c-0.2,0.4-0.3,0.7-0.3,1.2
				C679,219.5,679,219.9,679.2,220.2z"/>
			<path class="st1" d="M707.7,224.8c0,1.3-0.2,2.5-0.5,3.5s-0.9,1.8-1.5,2.5c-0.7,0.7-1.4,1.2-2.4,1.5c-0.9,0.3-1.9,0.5-3.1,0.5
				c-1.1,0-2.1-0.2-3-0.5c-0.9-0.3-1.7-0.8-2.4-1.5c-0.7-0.7-1.2-1.5-1.5-2.4c-0.4-1-0.5-2.1-0.5-3.4v-10.4h2v10.3
				c0,1.9,0.5,3.4,1.4,4.5c1,1,2.3,1.6,4,1.6c1.7,0,3-0.5,3.9-1.5c1-1,1.5-2.5,1.5-4.4v-10.4h2V224.8z"/>
			<path class="st1" d="M711.8,214.6h2v16.1h10.1v1.9h-12.1V214.6z"/>
			<path class="st1" d="M731.1,232.5h-2v-16.1h-6v-1.9h14.1v1.9h-6V232.5z"/>
			<path class="st1" d="M741.5,220.2c0.1,0.3,0.4,0.7,0.7,0.9c0.4,0.3,0.9,0.5,1.5,0.8c0.6,0.2,1.4,0.5,2.4,0.7
				c2,0.4,3.5,1.1,4.4,1.8c0.9,0.8,1.4,1.9,1.4,3.3c0,0.8-0.2,1.5-0.5,2.1c-0.3,0.6-0.7,1.2-1.3,1.6c-0.5,0.4-1.2,0.8-1.9,1
				c-0.8,0.2-1.6,0.4-2.5,0.4c-1.4,0-2.7-0.2-3.9-0.7c-1.2-0.5-2.3-1.2-3.4-2.1l1.3-1.5c0.9,0.9,1.9,1.5,2.8,1.9
				c1,0.4,2.1,0.6,3.3,0.6c1.2,0,2.2-0.3,2.9-0.8c0.7-0.6,1.1-1.3,1.1-2.2c0-0.4-0.1-0.8-0.2-1.1c-0.1-0.3-0.4-0.6-0.7-0.9
				c-0.3-0.3-0.8-0.5-1.4-0.7c-0.6-0.2-1.4-0.4-2.3-0.6c-1-0.2-1.9-0.5-2.7-0.8c-0.8-0.3-1.4-0.6-1.9-1.1c-0.5-0.4-0.9-0.9-1.1-1.4
				s-0.4-1.2-0.4-1.9c0-0.7,0.1-1.4,0.4-2c0.3-0.6,0.7-1.1,1.2-1.6c0.5-0.4,1.2-0.8,1.9-1c0.7-0.2,1.5-0.4,2.4-0.4
				c1.3,0,2.5,0.2,3.4,0.5c1,0.4,1.9,0.9,2.9,1.6l-1.2,1.6c-0.8-0.7-1.7-1.2-2.5-1.5c-0.8-0.3-1.7-0.5-2.7-0.5
				c-0.6,0-1.1,0.1-1.6,0.2c-0.5,0.2-0.9,0.4-1.2,0.6c-0.3,0.3-0.6,0.6-0.8,0.9c-0.2,0.4-0.3,0.7-0.3,1.2
				C741.3,219.5,741.4,219.9,741.5,220.2z"/>
		</g>
	</g>
	<g>
		<polygon class="st0" points="221.1,266.1 217.3,271.3 217.3,10 221.1,4.9 		"/>
	</g>
</g>
</svg>
